<svg xmlns="http://www.w3.org/2000/svg" viewBox="0 0 1200 630" role="img" aria-labelledby="title desc">
  <title id="title">Make Bold Spark Open Graph image</title>
  <desc id="desc">Social share image for Make Bold Spark.</desc>
  <rect width="1200" height="630" fill="#F7F4EF"/>
  <path fill="#EEE8DF" d="M0 472h1200v158H0z"/>
  <path fill="#040605" d="M96 356 360 92l78 264H96Z"/>
  <path fill="#982407" d="M96 356 277 170l49 186H96Z"/>
  <path fill="#E94B1B" d="m360 92 28 105 91-39-66 87 82 38-103 12-32 98-32-98-103-12 82-38-66-87 91 39 28-105Z"/>
  <path fill="#040605" d="M170 410h276v35H170zM215 474h186v25H215z"/>
  <text x="560" y="272" fill="#040605" font-family="Inter Tight, Arial Narrow, Arial, sans-serif" font-size="88" font-weight="900" letter-spacing="0">Make Bold</text>
  <text x="560" y="366" fill="#040605" font-family="Inter Tight, Arial Narrow, Arial, sans-serif" font-size="108" font-weight="900" letter-spacing="0">Spark</text>
  <text x="564" y="432" fill="#2F3A3D" font-family="Inter Tight, Arial, sans-serif" font-size="34" font-weight="650" letter-spacing="0">Practical software sparks, built boldly.</text>
  <path fill="#E94B1B" d="M560 470h320l-28 34H532l28-34Z"/>
</svg>

